<?xml version="1.0" standalone="no"?>
<!DOCTYPE svg PUBLIC "-//W3C//DTD SVG 20010904//EN"
 "http://www.w3.org/TR/2001/REC-SVG-20010904/DTD/svg10.dtd">
<svg version="1.0" xmlns="http://www.w3.org/2000/svg"
 width="500.000000pt" height="500.000000pt" viewBox="0 0 500.000000 500.000000"
 preserveAspectRatio="xMidYMid meet">

<g transform="translate(0.000000,500.000000) scale(0.100000,-0.100000)"
fill="#000000" stroke="none">
<path d="M2150 3584 c-125 -45 -211 -146 -240 -282 l-11 -50 -242 -4 -242 -3
-66 -32 c-78 -39 -140 -101 -177 -181 l-27 -57 0 -595 0 -595 27 -57 c36 -77
98 -141 171 -178 l60 -30 1097 0 1097 0 60 30 c73 37 135 101 171 178 l27 57
0 595 0 595 -27 57 c-37 80 -99 142 -177 181 l-66 32 -242 3 -242 4 -11 51
c-24 118 -92 206 -202 264 l-53 28 -320 2 c-272 2 -327 0 -365 -13z m513 -590
c224 -54 401 -239 453 -472 21 -96 15 -250 -15 -342 -60 -189 -215 -342 -406
-403 -57 -18 -94 -22 -195 -22 -101 0 -138 4 -195 22 -192 61 -346 213 -406
403 -30 92 -36 246 -15 342 68 307 345 514 656 491 36 -2 91 -11 123 -19z"/>
<path d="M2570 2740 c-8 -5 -11 -10 -5 -10 5 0 4 -5 -3 -12 -8 -8 -6 -16 10
-30 24 -20 38 -23 38 -7 0 5 4 8 9 4 19 -11 16 31 -3 48 -22 20 -26 20 -46 7z"/>
</g>
</svg>
